#!OML:ASF X:\für Bonn\!DataBase\2005_08_10_Bjorn_Final\c3d\bjorn.ASF
:FULLY-SPECIFIED
:DEGREES
139
root 24.0099 17.0484 -0.768943 23.4327 -71.7623 -337.904
lowerback 55.4329 -2.48397 9.33652
upperback 18.1754 -0.617403 0.83144
thorax -0.454748 -0.43486 -3.00449
lowerneck 2.75361 -2.42298 7.82309
upperneck -16.6079 -3.39227 -3.24039
head -5.65149 -2.05901 -2.1047
rclavicle 2.22639e-014 2.14687e-014
rhumerus 75.3053 0.584482 -59.2875
rradius 15.3647
rwrist -7.49198
rhand -11.1992 10.1678
rfingers 7.12502
rthumb 14.8286 -19.2816
lclavicle 2.22639e-014 2.14687e-014
lhumerus 63.0127 -4.00067 108.978
lradius 10.0695
lwrist -64.8877
lhand -29.1733 -7.72155
lfingers 7.12502
lthumb -2.51912 22.2433
rfemur -91.9155 -17.4727 20.0178
rtibia 65.6653
rfoot -12.2749 12.6232
rtoes -2.03185
lfemur -89.181 8.54937 -35.4318
ltibia 63.4698
lfoot -10.9398 -7.86389
ltoes -7.39914
140
root 24.0012 17.0326 -0.760972 23.7437 -71.6164 -338.068
lowerback 55.67 -2.54366 9.36543
upperback 18.1055 -0.632918 0.808259
thorax -0.54651 -0.439288 -3.02762
lowerneck 2.77053 -2.37591 7.89043
upperneck -16.6321 -3.33198 -3.32303
head -5.6607 -2.02755 -2.14562
rclavicle -4.77083e-015 1.43125e-014
rhumerus 75.6656 0.699412 -59.1181
rradius 15.4051
rwrist -7.42364
rhand -11.2428 10.1397
rfingers 7.12502
rthumb 14.7866 -19.3128
lclavicle -4.77083e-015 1.43125e-014
lhumerus 63.1998 -4.07669 108.908
lradius 10.1989
lwrist -64.5831
lhand -29.85 -7.73927
lfingers 7.12502
lthumb -3.17259 22.2169
rfemur -92.0908 -17.4651 19.9458
rtibia 65.8679
rfoot -12.4262 12.4406
rtoes -1.97064
lfemur -89.4051 8.36647 -35.3168
ltibia 63.6633
lfoot -11.0185 -7.78851
ltoes -7.45288
141
root 23.9927 17.0163 -0.753163 23.9439 -71.4673 -338.126
lowerback 55.9128 -2.58901 9.3295
upperback 18.0352 -0.659458 0.817043
thorax -0.642784 -0.456028 -2.98357
lowerneck 2.78944 -2.31561 7.87855
upperneck -16.6608 -3.25723 -3.38779
head -5.66884 -1.98539 -2.16877
rclavicle 2.22639e-014 -2.06736e-014
rhumerus 76.0255 0.885272 -58.7336
rradius 15.5175
rwrist -7.56985
rhand -11.3231 10.046
rfingers 7.12502
rthumb 14.7092 -19.4122
lclavicle 2.22639e-014 -2.06736e-014
lhumerus 63.386 -4.07138 108.944
lradius 10.3613
lwrist -64.3779
lhand -30.5141 -7.64128
lfingers 7.12502
lthumb -3.81388 22.3043
rfemur -92.2645 -17.4772 19.838
rtibia 66.0731
rfoot -12.6181 12.2717
rtoes -2.17447
lfemur -89.6099 8.18154 -35.2534
ltibia 63.853
lfoot -11.1197 -7.74422
ltoes -7.41475
142
root 23.984 17.0006 -0.74573 24.1889 -71.3303 -338.247
lowerback 56.1695 -2.64089 9.33488
upperback 17.9604 -0.67513 0.796269
thorax -0.741468 -0.462628 -2.99313
lowerneck 2.83939 -2.27488 7.90936
upperneck -16.7187 -3.20156 -3.43743
head -5.6933 -1.95659 -2.19263
rclavicle 6.83819e-014 2.46493e-014
rhumerus 76.3727 0.997552 -58.6447
rradius 15.5739
rwrist -7.5352
rhand -11.3653 9.99735
rfingers 7.12502
rthumb 14.6686 -19.4638
lclavicle 6.83819e-014 2.46493e-014
lhumerus 63.5885 -4.1001 108.972
lradius 10.47
lwrist -64.2298
lhand -31.2407 -7.62851
lfingers 7.12502
lthumb -4.51552 22.3034
rfemur -92.4237 -17.4805 19.7643
rtibia 66.2715
rfoot -12.8083 12.1053
rtoes -2.31444
lfemur -89.8025 8.02786 -35.1793
ltibia 64.0336
lfoot -11.2217 -7.71907
ltoes -7.54071
143
root 23.9756 16.9867 -0.739471 24.4235 -71.1906 -338.405
lowerback 56.4549 -2.68148 9.34421
upperback 17.9044 -0.678434 0.788974
thorax -0.818296 -0.464533 -2.99384
lowerneck 2.83747 -2.231 7.9032
upperneck -16.7734 -3.14387 -3.45079
head -5.70663 -1.92789 -2.19961
rclavicle 6.67916e-014 2.06736e-014
rhumerus 76.7194 1.07538 -58.4818
rradius 15.6366
rwrist -7.51817
rhand -11.3762 9.98293
rfingers 7.12502
rthumb 14.6581 -19.479
lclavicle 6.67916e-014 2.06736e-014
lhumerus 63.7801 -4.23767 108.776
lradius 10.6605
lwrist -63.7916
lhand -31.9632 -7.55735
lfingers 7.12502
lthumb -5.21316 22.3585
rfemur -92.5159 -17.469 19.6827
rtibia 66.461
rfoot -12.9701 11.9295
rtoes -2.42928
lfemur -89.9425 7.88631 -35.0685
ltibia 64.2082
lfoot -11.3062 -7.65312
ltoes -7.6765
144
root 23.9679 16.9733 -0.733246 24.5991 -71.0707 -338.496
lowerback 56.7408 -2.70123 9.29298
upperback 17.8353 -0.684679 0.790307
thorax -0.913186 -0.47284 -2.95777
lowerneck 2.82709 -2.19586 7.88778
upperneck -16.7875 -3.10161 -3.47982
head -5.70663 -1.9043 -2.20912
rclavicle -2.06736e-014 -5.24792e-014
rhumerus 77.0698 1.17959 -58.5693
rradius 15.6353
rwrist -7.22871
rhand -11.3815 10.0397
rfingers 7.12502
rthumb 14.6529 -19.4226
lclavicle -2.06736e-014 -5.24792e-014
lhumerus 63.9861 -4.33039 108.58
lradius 10.783
lwrist -63.3648
lhand -32.7793 -7.51975
lfingers 7.12502
lthumb -6.0011 22.3753
rfemur -92.6196 -17.4542 19.5769
rtibia 66.648
rfoot -13.16 11.756
rtoes -2.55637
lfemur -90.0767 7.74918 -34.9876
ltibia 64.3724
lfoot -11.387 -7.60511
ltoes -7.66601
145
root 23.9601 16.9608 -0.727289 24.776 -70.9383 -338.619
lowerback 57.032 -2.7403 9.28585
upperback 17.7732 -0.693219 0.777891
thorax -0.997081 -0.477934 -2.95477
lowerneck 2.8296 -2.16837 7.88193
upperneck -16.8168 -3.06726 -3.502
head -5.71423 -1.88587 -2.21741
rclavicle -7.31528e-014 1.66979e-014
rhumerus 77.4186 1.22218 -58.8042
rradius 15.5517
rwrist -6.7519
rhand -11.357 10.1993
rfingers 7.12502
rthumb 14.6766 -19.2613
lclavicle -7.31528e-014 1.66979e-014
lhumerus 64.1634 -4.46067 108.328
lradius 10.9472
lwrist -62.981
lhand -33.6525 -7.3512
lfingers 7.12502
lthumb -6.84408 22.5182
rfemur -92.682 -17.4469 19.482
rtibia 66.8282
rfoot -13.3589 11.5821
rtoes -2.83977
lfemur -90.1852 7.62055 -34.8956
ltibia 64.5329
lfoot -11.4792 -7.56664
ltoes -7.62869
